<?xml version="1.0" encoding="iso-8859-1"?>
<!-- Generator: Adobe Illustrator 19.0.0, SVG Export Plug-In . SVG Version: 6.00 Build 0)  -->
<svg version="1.1" id="Capa_1" xmlns="http://www.w3.org/2000/svg" xmlns:xlink="http://www.w3.org/1999/xlink" x="0px" y="0px"
	 viewBox="0 0 512 512" style="enable-background:new 0 0 512 512;" xml:space="preserve">
<path style="fill:#3993B7;" d="M511.052,243.246c0,9.418-1.613,18.484-4.58,26.93c-6.802,19.404-20.737,35.531-38.611,45.196v61.789
	c0,16.675-22.774,21.492-29.535,6.254l-25.834-58.232H310.769c-22.536,0-43.015-9.221-57.87-24.066
	c-14.845-14.855-24.066-35.334-24.066-57.871c0-43.78,34.807-79.828,78.122-81.833c1.261-0.062,2.533-0.093,3.815-0.093h118.356
	c22.526,0,43.015,9.211,57.86,24.066C501.831,200.231,511.052,220.71,511.052,243.246z"/>
<path style="fill:#3E9DC3;" d="M511.052,243.246c0,9.418-1.613,18.484-4.58,26.93c-24.438,15.817-59.142,25.689-97.64,25.689
	c-74.008,0-133.987-36.492-133.987-81.503c0-20.221,12.095-38.704,32.109-52.95c1.261-0.062,2.533-0.093,3.815-0.093h118.356
	c22.526,0,43.015,9.211,57.86,24.066C501.831,200.231,511.052,220.71,511.052,243.246z"/>
<path style="fill:#A6D2E3;" d="M359.719,70.638c0,16.685-5.862,32.068-15.631,44.183c-12.974,16.106-32.843,26.454-55.007,26.454
	h-87.705l-22.278,50.21c-5.83,13.139-25.462,8.983-25.462-5.396v-53.27c-11.061-5.975-20.376-14.824-26.919-25.524
	c-6.544-10.7-10.327-23.26-10.327-36.658c0-33.06,23.012-61.003,53.818-68.591C175.604,0.703,181.238,0,187.027,0h102.054
	c19.425,0,37.081,7.95,49.89,20.748C351.769,33.556,359.719,51.213,359.719,70.638z"/>
<path style="fill:#C0DFEB;" d="M359.719,70.638c0,16.685-5.862,32.068-15.631,44.183c-17.016,4.766-35.955,7.422-55.906,7.422
	c-73.997,0-133.987-36.492-133.987-81.513c0-13.997,5.799-27.178,16.013-38.684C175.604,0.703,181.238,0,187.027,0h102.054
	c19.425,0,37.081,7.95,49.89,20.748C351.769,33.556,359.719,51.213,359.719,70.638z"/>
<path style="fill:#1B87B3;" d="M240.225,484.64c-4.282,0-7.753-3.471-7.753-7.753s3.471-7.753,7.753-7.753h28.281
	c17.982-2.615,41.133-13.873,50.296-28.396c3.669-5.808,5.826-12.739,6.162-19.709c-30.334,10.568-49.325-3.828-49.325-20.467
	c0-12.642,10.993-25.89,26.873-25.89c13.19,0,26.571,8.667,33.348,22.993c13.451-10.328,22.234-26.096,23.04-42.224
	c0.213-4.277,3.824-7.577,8.13-7.357c4.277,0.214,7.57,3.854,7.356,8.131c-1.127,22.585-14.35,44.531-34.159,57.323
	c1.319,12.587-1.945,25.397-8.314,35.48c-9.748,15.45-34.519,31.757-61.792,35.55C269.144,484.701,270.616,484.614,240.225,484.64z
	 M299.457,390.53c-4.432,1.046-8.31,5.732-8.31,10.032c0,8.451,15.251,11.354,31.208,4.885
	C317.371,393.68,306.67,388.813,299.457,390.53z"/>
<path style="fill:#06638D;" d="M228.109,511.903c-15.62,0.579-31.158-1.437-45.972-5.851
	c-34.859-10.389-65.758-34.073-84.428-68.601L18.088,290.242c-26.465-48.928-21.265-106.499,8.58-149.184
	c6.885-9.852,16.685-15.775,27.105-17.915c17.905-3.67,37.629,3.877,47.46,22.05l17.212,31.819
	c8.26,15.289,2.574,34.383-12.715,42.643l-7.557,4.094c-24.686,13.346-33.877,44.183-20.52,68.87l50.665,93.68
	c13.356,24.686,44.194,33.877,68.88,20.52l7.557-4.083c15.279-8.27,34.373-2.574,42.643,12.705l17.212,31.83
	c2.46,4.569,4.032,9.294,4.786,14.028C273.357,486.059,255.215,510.9,228.109,511.903z"/>
<g>
	<circle style="fill:#3E9DC3;" cx="164.876" cy="65.727" r="12.394"/>
	<circle style="fill:#3E9DC3;" cx="213.66" cy="65.727" r="12.394"/>
	<circle style="fill:#3E9DC3;" cx="262.444" cy="65.727" r="12.394"/>
	<circle style="fill:#3E9DC3;" cx="311.238" cy="65.727" r="12.394"/>
</g>
<path style="fill:#C0DFEB;" d="M381.778,244.659c-7.529,6.146-7.682,11.369-7.682,20.281c0,2.765-1.383,5.532-7.682,5.532
	c-5.07,0-7.067-1.997-7.067-8.604c0-14.289,4.917-20.434,9.218-24.275c5.378-5.071,15.056-10.447,15.056-20.895
	c0-8.604-6.453-13.214-15.825-13.214c-15.056,0-13.059,10.601-20.126,10.601c-3.533,0-7.681-2.304-7.681-7.375
	c0-7.375,9.678-18.129,28.27-18.129c19.512,0,31.649,11.215,31.649,25.965C399.906,230.37,386.387,240.356,381.778,244.659z
	 M377.015,291.979c0,5.532-4.609,10.447-10.447,10.447c-5.839,0-10.294-4.917-10.294-10.447c0-5.685,4.609-10.447,10.294-10.447
	C372.252,281.532,377.015,286.295,377.015,291.979z"/>
<path style="fill:#1B87B3;" d="M269.398,461.3C138.13,461,31.806,354.501,31.806,223.16c0-35.727,7.867-69.614,21.968-100.017
	c17.905-3.67,37.629,3.877,47.46,22.05l17.212,31.819c8.26,15.289,2.574,34.383-12.715,42.643l-7.557,4.094
	c-24.686,13.346-33.877,44.183-20.52,68.87l50.665,93.68c13.356,24.686,44.194,33.877,68.88,20.52l7.557-4.083
	c15.279-8.27,34.373-2.574,42.643,12.705l17.212,31.83C267.072,451.841,268.643,456.565,269.398,461.3z"/>
<g>
</g>
<g>
</g>
<g>
</g>
<g>
</g>
<g>
</g>
<g>
</g>
<g>
</g>
<g>
</g>
<g>
</g>
<g>
</g>
<g>
</g>
<g>
</g>
<g>
</g>
<g>
</g>
<g>
</g>
</svg>
