<?xml version="1.0" encoding="iso-8859-1"?>
<!-- Generator: Adobe Illustrator 19.0.0, SVG Export Plug-In . SVG Version: 6.00 Build 0)  -->
<svg version="1.1" id="Layer_1" xmlns="http://www.w3.org/2000/svg" xmlns:xlink="http://www.w3.org/1999/xlink" x="0px" y="0px"
	 viewBox="0 0 469.341 469.341" style="enable-background:new 0 0 469.341 469.341;" xml:space="preserve">
<g>
	<g>
		<g>
			<path d="M202.67,213.341c-29.406,0-53.333,23.927-53.333,53.333s23.927,53.333,53.333,53.333s53.333-23.927,53.333-53.333
				S232.077,213.341,202.67,213.341z M202.67,298.674c-17.646,0-32-14.354-32-32c0-17.646,14.354-32,32-32s32,14.354,32,32
				C234.67,284.32,220.316,298.674,202.67,298.674z"/>
			<path d="M466.212,35.133l-32-32c-3.396-3.417-8.656-4.115-12.833-1.719l-74.667,42.667c-3.323,1.896-5.375,5.438-5.375,9.26
				v16.917l-71.469,71.469c-15.771-8.979-31.479-13.698-45.865-13.719c-50.229,0-62.646,30.875-71.708,53.417
				c-8.427,20.969-13.813,31.906-34.958,31.917c-74.563,0-117.333,38.875-117.333,106.667c0,71.177,78.156,149.333,149.333,149.333
				c67.792,0,106.667-42.771,106.667-117.333c0-21.146,10.938-26.531,31.896-34.958c22.542-9.063,53.417-21.479,53.417-71.708
				c0-14.365-4.708-30.083-13.698-45.865l71.469-71.469h16.917c3.823,0,7.365-2.052,9.26-5.375l42.667-74.667
				C470.316,43.789,469.618,38.529,466.212,35.133z M409.816,106.674H394.67c-2.833,0-5.542,1.125-7.542,3.125l-80.531,80.531
				c-3.573,3.573-4.146,9.156-1.385,13.385c9.667,14.76,14.771,29.156,14.771,41.625c0,35.813-17.667,42.917-40.042,51.917
				c-20.167,8.115-45.271,18.208-45.271,54.75c0,43.792-14.802,96-85.333,96c-58.615,0-128-69.385-128-128
				c0-70.521,52.208-85.344,96-85.354c36.542,0,46.635-25.104,54.75-45.271c8.99-22.354,16.094-40.021,51.885-40.021h0.031
				c12.469,0,26.865,5.104,41.625,14.771c4.24,2.74,9.813,2.198,13.385-1.385l80.531-80.531c2-2,3.125-4.708,3.125-7.542V59.529
				l62.219-35.552l20.479,20.479L409.816,106.674z"/>
			<path d="M103.545,323.133c-4.167-4.167-10.917-4.167-15.083,0c-4.167,4.167-4.167,10.917,0,15.083l42.667,42.667
				c2.083,2.083,4.813,3.125,7.542,3.125s5.458-1.042,7.542-3.125c4.167-4.167,4.167-10.917,0-15.083L103.545,323.133z"/>
		</g>
	</g>
</g>
<g>
</g>
<g>
</g>
<g>
</g>
<g>
</g>
<g>
</g>
<g>
</g>
<g>
</g>
<g>
</g>
<g>
</g>
<g>
</g>
<g>
</g>
<g>
</g>
<g>
</g>
<g>
</g>
<g>
</g>
</svg>
