<?xml version="1.0" encoding="iso-8859-1"?>
<!-- Generator: Adobe Illustrator 16.0.0, SVG Export Plug-In . SVG Version: 6.00 Build 0)  -->
<!DOCTYPE svg PUBLIC "-//W3C//DTD SVG 1.1//EN" "http://www.w3.org/Graphics/SVG/1.1/DTD/svg11.dtd">
<svg version="1.1" id="Capa_1" xmlns="http://www.w3.org/2000/svg" xmlns:xlink="http://www.w3.org/1999/xlink" x="0px" y="0px"
	 width="652.801px" height="652.801px" viewBox="0 0 652.801 652.801" style="enable-background:new 0 0 652.801 652.801;"
	 xml:space="preserve">
<g>
	<g id="Music_x5F_Note">
		<g>
			<path d="M571.193,0C445.57,0,312.175,33.538,214.316,89.719c-19.013,10.934-30.722,31.171-30.722,53.081v332.011
				c-11.424-3.529-23.726-5.611-36.618-5.611c-15.116,0-30.865,2.551-46.39,7.957c-59.384,20.604-93.167,74.826-75.48,121.135
				c13.015,34.191,50.49,54.51,93.085,54.51c15.117,0,30.886-2.551,46.41-7.957c48.021-16.688,79.315-55.365,80.152-94.064
				l0.041,0.021V335.783l30.478-17.502c78.907-45.329,192.311-73.481,295.922-73.481v148.409
				c-11.424-3.527-23.725-5.609-36.618-5.609c-15.116,0-30.865,2.551-46.39,7.957c-59.384,20.604-93.166,74.826-75.479,121.135
				c13.015,34.189,50.49,54.508,93.085,54.508c15.116,0,30.886-2.57,46.41-7.955c48.021-16.688,79.315-55.365,80.151-94.064
				l0.041,0.02v-408C632.394,27.397,604.996,0,571.193,0z M181.391,557.715c-4.427,9.527-16.442,22.236-36.842,29.316
				c-8.731,3.018-17.584,4.568-26.357,4.568c-19.584,0-33.109-7.771-35.924-15.137c-1.244-3.264-0.734-7.363,1.53-12.219
				c4.427-9.508,16.442-22.195,36.863-29.295c8.71-3.02,17.564-4.549,26.316-4.549c19.584,0,33.15,7.793,35.945,15.115
				C184.145,548.76,183.655,552.881,181.391,557.715z M568.99,476.115c-4.427,9.527-16.442,22.236-36.843,29.314
				c-8.73,3.02-17.584,4.57-26.356,4.57c-19.584,0-33.109-7.773-35.924-15.137c-1.266-3.264-0.734-7.365,1.529-12.221
				c4.427-9.506,16.442-22.193,36.863-29.273c8.711-3.039,17.564-4.568,26.315-4.568c19.584,0,33.15,7.791,35.945,15.115
				C571.744,467.16,571.255,471.281,568.99,476.115z M571.193,183.6c-107.386,0-233.294,28.131-326.399,81.6V142.8
				c93.105-53.468,219.014-81.6,326.399-81.6V183.6z"/>
		</g>
	</g>
</g>
<g>
</g>
<g>
</g>
<g>
</g>
<g>
</g>
<g>
</g>
<g>
</g>
<g>
</g>
<g>
</g>
<g>
</g>
<g>
</g>
<g>
</g>
<g>
</g>
<g>
</g>
<g>
</g>
<g>
</g>
</svg>
