<?xml version="1.0" encoding="iso-8859-1"?>
<!-- Generator: Adobe Illustrator 19.0.0, SVG Export Plug-In . SVG Version: 6.00 Build 0)  -->
<svg version="1.1" id="Layer_1" xmlns="http://www.w3.org/2000/svg" xmlns:xlink="http://www.w3.org/1999/xlink" x="0px" y="0px"
	 viewBox="0 0 496.158 496.158" style="enable-background:new 0 0 496.158 496.158;" xml:space="preserve">
<path style="fill:#337180;" d="M0,248.085C0,111.064,111.07,0.003,248.076,0.003c137.012,0,248.082,111.061,248.082,248.082
	c0,137.002-111.07,248.07-248.082,248.07C111.07,496.155,0,385.087,0,248.085z"/>
<path style="fill:#B5E3EA;" d="M386.385,128.345c-0.907-0.877-2.14-1.324-3.403-1.229l-212.504,13.65
	c-2.233,0.171-3.983,1.988-4.071,4.227l-6.323,146.291c-5.763-2.04-11.818-3.071-18.077-3.071c-3.018,0-6.135,0.24-9.194,0.704
	c-13.411,1.812-24.564,7.18-33.149,15.947c-8.91,9.1-12.548,19.38-10.812,30.559c1.722,11.102,8.137,19.979,19.065,26.385
	c8.201,4.809,17.288,7.246,27.003,7.246c2.825,0,5.751-0.206,8.75-0.623c11.925-1.807,22.043-6.332,30.071-13.447
	c8.219-7.285,12.961-15.965,14.095-25.8c0.02-0.167,0.028-0.336,0.028-0.505v-1.371c0.347-5.266,6.398-131.121,6.398-131.121
	l164.654-13.25l-5.934,108.635c-6.329-2.518-13.049-3.79-20.055-3.79c-2.89,0-5.879,0.218-8.846,0.642
	c-13.444,1.816-24.533,7.291-32.959,16.268c-8.673,9.235-12.293,19.555-10.76,30.67c1.539,11.158,7.888,19.986,18.872,26.234
	c8.14,4.631,17.246,6.979,27.066,6.979c2.939,0,5.992-0.209,9.144-0.637c11.948-1.811,22.166-6.518,30.369-13.994
	c8.438-7.687,12.916-16.615,13.314-26.537c0.36-5.566,3.175-69.596,8.597-195.701C387.778,130.444,387.292,129.222,386.385,128.345z
	"/>
<g>
</g>
<g>
</g>
<g>
</g>
<g>
</g>
<g>
</g>
<g>
</g>
<g>
</g>
<g>
</g>
<g>
</g>
<g>
</g>
<g>
</g>
<g>
</g>
<g>
</g>
<g>
</g>
<g>
</g>
</svg>
